PathFileType	4	(X/Y/Z)	Patient4_TMGait_0pt4_01_left_22.trc.trc
DataRate	CameraRate	NumFrames	NumMarkers	Units	OrigDataRate	OrigDataStartFrame	OrigNumFrames
80.000000000000	80.000000000000	4	33	mm	80.000000000000	106	       141
Frame#	Time	Sacral			L.Shoulder			Chest			R.Shoulder			Neck			R.ASIS			L.ASIS			R.Thigh.Superior			R.Thigh.Lateral			R.Thigh.Inferior			R.Patella			L.Thigh.Superior			L.Thigh.Lateral			L.Thigh.Inferior			L.Patella			L.Shank.Superior			L.Shank.Lateral			L.Shank.Inferior			R.Shank.Superior			R.Shank.Lateral			R.Shank.Inferior			R.Heel			R.Midfoot.Superior			R.Midfoot.Lateral			R.Toe			L.Heel			L.Midfoot.Lateral			L.Midfoot.Superior			L.Toe			L.Elbow			L.Wrist			R.Elbow			R.Wrist			
		X1	Y1	Z1	X2	Y2	Z2	X3	Y3	Z3	X4	Y4	Z4	X5	Y5	Z5	X6	Y6	Z6	X7	Y7	Z7	X8	Y8	Z8	X9	Y9	Z9	X10	Y10	Z10	X11	Y11	Z11	X12	Y12	Z12	X13	Y13	Z13	X14	Y14	Z14	X15	Y15	Z15	X16	Y16	Z16	X17	Y17	Z17	X18	Y18	Z18	X19	Y19	Z19	X20	Y20	Z20	X21	Y21	Z21	X22	Y22	Z22	X23	Y23	Z23	X24	Y24	Z24	X25	Y25	Z25	X26	Y26	Z26	X27	Y27	Z27	X28	Y28	Z28	X29	Y29	Z29	X30	Y30	Z30	X31	Y31	Z31	X32	Y32	Z32	X33	Y33	Z33	

106	27.722500000000	662.019271495711	1005.054848757905	493.293766247750	827.503942061727	1434.196879400118	297.171364330494	945.716900430411	1364.966441778840	447.850535907092	879.194146939957	1442.940030058271	627.529734009221	841.091082214749	1496.364261760683	451.317980341102	897.981849831772	948.392733515643	596.556349711910	865.610464093002	966.067052720047	324.173631929865	922.558262466257	736.737314880666	565.744056833456	834.238680546772	632.659442818715	629.801079496823	902.597736987859	575.683467875192	547.105979385414	894.103393786245	490.306551948005	552.414032827354	958.455935934687	791.180183953384	354.671372147647	924.901714980392	661.102297546951	275.254063640409	1034.155351521348	609.907036253780	335.663610059167	1058.020901700943	526.015203394589	328.149700692709	1008.070626057315	450.389444389596	319.775479325386	882.360499196834	371.679219802444	274.867950917723	910.736777357333	242.535589979151	325.576581875163	863.839978122756	402.489066295677	560.924794137375	787.514720596832	300.880336585893	619.793523695538	829.054652976259	205.267903057484	557.626147632476	694.115154283723	41.383651023510	517.908260398649	860.548962320769	96.458841611579	568.868649668288	769.942470459779	35.834779663102	601.078820110430	977.924151881890	46.130316056994	610.073766413227	750.124293351061	130.107137670927	371.833874256520	810.659707395983	101.734899691055	286.450983741245	911.353364615646	134.807009514507	301.598714844202	1011.253272474842	46.059072543288	264.212884943456	765.039715057912	1086.094648057647	187.680981620178	814.100633472425	831.913426816618	158.371360586135	979.645709398381	1113.401598246783	742.955990245678	1213.978995752676	1071.888441245908	649.416995452547	
107	27.735000000000	662.343229147843	1005.646902479002	494.855568682123	827.919970538994	1433.871422794568	297.549252267470	947.180736835870	1364.379080351381	447.248137405607	882.630852922787	1442.871034001904	627.391619869538	842.996192001154	1496.173927692642	451.496326782604	898.759822773292	947.848790757284	596.514403365021	864.793640321234	966.359225959213	324.280063395749	921.203935921277	735.918575457961	565.362232819279	832.454584976926	632.507690305289	630.131134868182	899.862892398394	575.049645697755	547.199305992185	890.625546775447	489.793849020885	552.613647923354	957.586978578000	792.014909808624	355.241093222677	924.835262520737	661.758163807218	275.742347395065	1033.538114242433	611.000763198153	337.207957847227	1058.778557688479	528.804774206581	329.337980890240	1012.723855855018	452.442555033065	320.293093518797	892.616541502046	366.277736616115	274.410634396641	928.945092597465	238.737804247730	324.911073883919	860.054962443398	402.129360504919	561.100160600901	783.423879761586	300.767449656399	620.016285297614	824.484382342575	205.038188885245	557.718045462802	689.102311433748	41.368834028453	517.994672838370	855.515821083965	96.407423260777	568.908857481158	764.886875327584	35.790241467459	601.046841283767	972.877646926839	46.023328235911	610.117527612879	775.963551464602	115.150961106597	370.169016545233	838.695961939961	91.605021296471	284.958949280383	936.781977763124	131.631518738886	300.671285892503	1042.971255432534	50.524746014493	263.456476627507	761.085597567075	1085.864670885399	190.336503641846	801.959977142135	830.440716943347	161.470793360964	986.526654872779	1114.749872505306	741.864110000599	1220.286041899974	1084.134437664739	644.139250790764	
108	27.747500000000	662.797737400235	1006.100031280519	496.250751381297	828.389048032472	1433.487065041509	297.802235614553	948.671374400819	1363.707365592459	446.525038594851	886.029041843745	1442.643915443678	627.122924527621	844.930860707672	1495.893654382775	451.556792270969	899.661799866037	947.245629638563	596.309562492269	864.182642496873	966.503471340669	324.253933486969	920.035696273722	735.074914712032	564.951218660569	830.844261978931	632.308490597046	630.412469150888	897.307138442687	574.382500123452	547.260159311305	887.315669622815	489.239424718563	552.793306626787	956.612346814757	792.341164135835	355.754829881140	924.584044223738	662.059321075354	276.011160827509	1032.419431192721	611.455267930150	338.810642857791	1058.998788111888	531.159906797855	330.557125728106	1016.947751664614	454.286030082899	320.852140301176	903.166783443516	360.903551750491	273.621564714717	947.162055001761	235.501688861129	324.292671078254	856.404219234954	401.720306912171	561.237599728177	779.443012430838	300.639542438948	620.210092559228	819.975813412495	204.780158098445	557.787974981465	684.093699629710	41.356325178014	518.090042085379	850.492074922076	96.349592418207	568.948482873214	759.835808426378	35.751405895544	601.024847877265	967.838383421538	45.893878331675	610.166379655015	802.360952082924	101.317988728271	368.080003701790	867.350564497658	82.631662756755	283.383974016507	962.316919428402	129.354271619520	299.999737257418	1074.347270671537	56.102118717503	263.579891289779	757.124820971470	1085.699516791732	192.762737847016	790.704038810078	829.390003127880	164.495001188048	993.250764777620	1115.869655147990	740.552699292480	1225.902812912462	1095.457600431921	638.858468599591	
109	27.760000000000	663.391332187035	1006.410314037883	497.470479536803	828.917620173805	1433.047592082376	297.913824188421	950.180894601012	1362.970638162701	445.684225527938	889.346535798455	1442.285041327978	626.718134409312	846.884716275860	1495.534878876696	451.481089065703	900.691470475513	946.601625123200	595.959080627675	863.794643819762	966.507595641382	324.103456845435	919.076557344240	734.209542213266	564.532999109856	829.409697290916	632.062719940386	630.634417174196	894.940170471764	573.677810950713	547.284044379049	884.191327319031	488.642046033551	552.942403664038	955.571319990014	792.194628841558	356.205710595245	924.191536938669	662.056546208145	276.028467765763	1030.895327010444	611.334639825572	340.364049707905	1058.763469865415	533.115483093308	331.743433049581	1020.746890080081	455.957777366000	321.428685711646	913.895418185793	355.768701539048	272.521176192327	965.087158852651	233.003295018198	323.771720125513	852.898822403517	401.263767171217	561.327801681122	775.577735903835	300.503011424123	620.368119251334	815.536183128649	204.496370942000	557.831433041565	679.087655177597	41.349157151153	518.192493362631	845.478875121965	96.286579084997	568.985301543048	754.790556831029	35.721267040724	601.015316384495	962.808032692621	45.743625608688	610.221595728363	828.827876163785	89.019213352525	365.640240952632	896.143005667365	75.085125041556	281.842845880750	987.530643325917	128.125103349522	299.678096249639	1104.852236108664	62.763227332219	264.778901706936	753.184667951336	1085.597960386852	194.947272656863	780.382896205802	828.681180032198	167.379029187197	999.793626937871	1116.784684107246	739.021295352150	1230.908623320873	1105.792384081185	633.587337537266	
